<?xml version="1.0" encoding="iso-8859-1"?>
<!-- Generator: Adobe Illustrator 19.0.0, SVG Export Plug-In . SVG Version: 6.00 Build 0)  -->
<svg version="1.1" id="Capa_1" xmlns="http://www.w3.org/2000/svg" xmlns:xlink="http://www.w3.org/1999/xlink" x="0px" y="0px"
	 viewBox="0 0 512 512" style="enable-background:new 0 0 512 512;" xml:space="preserve">
<circle style="fill:#D2F0FF;" cx="256" cy="256" r="256"/>
<path style="fill:#73C8F0;" d="M105.551,379.588l131.727,131.727C243.461,511.762,249.703,512,256,512
	c126.603,0,231.724-91.907,252.325-212.637L304.473,95.511l-198.922,34.9C105.551,130.411,105.551,379.588,105.551,379.588z"/>
<g>
	<path style="fill:#1E73BE;" d="M406.449,274.937v-39.874h-22.707c-1.184-3.772-2.705-7.393-4.51-10.843l16.07-16.07l-28.195-28.195
		l-16.07,16.07c-3.45-1.804-7.07-3.326-10.843-4.51v-22.707h-19.236v52.786c18.134,0.374,32.722,15.181,32.722,33.405
		s-14.588,33.031-32.722,33.405v52.786h19.236v-22.707c3.772-1.184,7.393-2.705,10.843-4.51l16.07,16.07l28.195-28.195l-16.07-16.07
		c1.804-3.45,3.326-7.07,4.51-10.843h22.707V274.937z"/>
	<path style="fill:#1E73BE;" d="M320.959,236.631v36.738c9.837-0.371,17.703-8.441,17.703-18.369
		C338.662,245.072,330.796,237.002,320.959,236.631z"/>
	<polygon style="fill:#1E73BE;" points="304.473,414.489 105.551,379.588 105.551,130.412 304.473,95.511 	"/>
</g>
<path style="fill:#FFFFFF;" d="M191.468,197.086h19.903l44.047,115.827h-23.165l-10.767-28.875h-40.458l-10.604,28.875h-23.165
	L191.468,197.086z M217.408,268.214l-15.987-45.515l-16.64,45.515H217.408z"/>
<g>
</g>
<g>
</g>
<g>
</g>
<g>
</g>
<g>
</g>
<g>
</g>
<g>
</g>
<g>
</g>
<g>
</g>
<g>
</g>
<g>
</g>
<g>
</g>
<g>
</g>
<g>
</g>
<g>
</g>
</svg>
